<?xml version="1.0" ?><svg data-name="Layer 2" id="fd15983c-9e16-4e4e-bcf8-b6f5f0d472f3" viewBox="0 0 38 38" xmlns="http://www.w3.org/2000/svg"><path d="M29.429,36.744H8.571a5.259,5.259,0,0,1-5.252-5.252V6.509A5.259,5.259,0,0,1,8.571,1.256h13.32A5.238,5.238,0,0,1,25.615,2.8l7.521,7.515a5.3,5.3,0,0,1,1.545,3.728V31.492A5.259,5.259,0,0,1,29.429,36.744ZM8.571,3.756A2.757,2.757,0,0,0,5.819,6.509V31.492a2.756,2.756,0,0,0,2.752,2.752H29.429a2.756,2.756,0,0,0,2.752-2.752V14.04a2.786,2.786,0,0,0-.811-1.958L23.848,4.566a2.786,2.786,0,0,0-1.957-.81Z"/><path d="M32.32,13.72H27.665A5.24,5.24,0,0,1,22.43,8.485V2.51h2.5V8.485a2.738,2.738,0,0,0,2.735,2.735H32.32Z"/><path d="M12.515,18.551a1.74,1.74,0,0,1,.975.3,2.244,2.244,0,0,1,.735.811,2.369,2.369,0,0,1-.735,3.085,1.721,1.721,0,0,1-.975.3h-1.84l.1-.179v2.069a.618.618,0,0,1-.16.435.542.542,0,0,1-.42.175.53.53,0,0,1-.41-.175.618.618,0,0,1-.16-.435V19.162a.6.6,0,0,1,.61-.611Zm0,3.361a.555.555,0,0,0,.37-.161,1.261,1.261,0,0,0,.3-.415,1.264,1.264,0,0,0,0-1.075,1.217,1.217,0,0,0-.3-.4.564.564,0,0,0-.37-.154h-1.86l.12-.181v2.55l-.11-.159Z"/><path d="M10.2,25.676a.651.651,0,0,1-.5-.216.744.744,0,0,1-.193-.52V19.161a.722.722,0,0,1,.735-.735h2.28a1.869,1.869,0,0,1,1.044.32,2.372,2.372,0,0,1,.775.855,2.56,2.56,0,0,1,0,2.39,2.41,2.41,0,0,1-.774.859,1.857,1.857,0,0,1-1.045.326H10.9V24.94a.747.747,0,0,1-.193.52A.663.663,0,0,1,10.2,25.676Zm.04-7a.472.472,0,0,0-.485.485V24.94a.5.5,0,0,0,.127.352.41.41,0,0,0,.318.134.42.42,0,0,0,.328-.135.5.5,0,0,0,.127-.351V23.173a.122.122,0,0,1-.083-.059.125.125,0,0,1,0-.124l.1-.179a.122.122,0,0,1,.141-.061.126.126,0,0,1,.094.121v.055h1.615a1.62,1.62,0,0,0,.906-.283,2.277,2.277,0,0,0,.7-2.921,2.132,2.132,0,0,0-.7-.767,1.624,1.624,0,0,0-.906-.279Zm.54,3.519a.125.125,0,0,1-.1-.053l-.11-.16a.125.125,0,0,1,.088-.2V19.826a.124.124,0,0,1-.1-.194l.12-.181a.129.129,0,0,1,.14-.051.128.128,0,0,1,.089.121v.055h1.615a.691.691,0,0,1,.451.185,1.342,1.342,0,0,1,.332.446,1.391,1.391,0,0,1,0,1.183,1.4,1.4,0,0,1-.33.455.679.679,0,0,1-.453.191H10.9v.034a.124.124,0,0,1-.088.119A.119.119,0,0,1,10.775,22.2Zm.125-.409h1.615a.437.437,0,0,0,.287-.129,1.139,1.139,0,0,0,.27-.375A1.143,1.143,0,0,0,12.8,19.95a.442.442,0,0,0-.288-.124H10.9Z"/><path d="M16.8,18.551a.6.6,0,0,1,.425.175.577.577,0,0,1,.185.436v5.779a.569.569,0,0,1-.19.435.63.63,0,0,1-.44.175.591.591,0,0,1-.62-.61V19.162a.584.584,0,0,1,.18-.436A.635.635,0,0,1,16.8,18.551Zm-.03,2.91h4.46v1.15h-4.46Zm4.46-2.91a.591.591,0,0,1,.62.611v5.779a.593.593,0,0,1-.175.435.628.628,0,0,1-.465.175.6.6,0,0,1-.425-.175.572.572,0,0,1-.185-.435V19.162a.568.568,0,0,1,.19-.436A.631.631,0,0,1,21.225,18.551Z"/><path d="M21.205,25.676a.725.725,0,0,1-.511-.209.7.7,0,0,1-.224-.527V22.735H17.53V24.94a.7.7,0,0,1-.23.528.759.759,0,0,1-.525.208.715.715,0,0,1-.745-.736V19.161a.706.706,0,0,1,.218-.525.755.755,0,0,1,.547-.21.724.724,0,0,1,.51.209.7.7,0,0,1,.225.526v2.175h2.94V19.161a.691.691,0,0,1,.23-.527.754.754,0,0,1,.525-.208.717.717,0,0,1,.745.735V24.94a.717.717,0,0,1-.211.524A.755.755,0,0,1,21.205,25.676Zm-.485-2.941V24.94a.453.453,0,0,0,.146.345.475.475,0,0,0,.339.141.5.5,0,0,0,.377-.139.471.471,0,0,0,.138-.347V19.161a.467.467,0,0,0-.495-.485.511.511,0,0,0-.356.141.449.449,0,0,0-.149.344v2.175h.505a.126.126,0,0,1,.125.125V22.61a.125.125,0,0,1-.125.125ZM16.8,18.676a.513.513,0,0,0-.373.139.459.459,0,0,0-.142.346V24.94a.467.467,0,0,0,.495.486.507.507,0,0,0,.355-.142.447.447,0,0,0,.15-.344V22.735h-.515a.124.124,0,0,1-.125-.125V21.461a.125.125,0,0,1,.125-.125h.515V19.161a.454.454,0,0,0-.146-.345A.481.481,0,0,0,16.8,18.676Zm3.925,3.809h.38v-.9h-.38Zm-3.19,0h2.94v-.9H17.53Zm-.64,0h.39v-.9h-.39Z"/><path d="M26.735,18.551a1.742,1.742,0,0,1,.975.3,2.244,2.244,0,0,1,.735.811,2.438,2.438,0,0,1,0,2.269,2.3,2.3,0,0,1-.735.816,1.724,1.724,0,0,1-.975.3H24.9l.1-.179v2.069a.623.623,0,0,1-.16.435.542.542,0,0,1-.42.175.528.528,0,0,1-.41-.175.618.618,0,0,1-.16-.435V19.162a.6.6,0,0,1,.61-.611Zm0,3.361a.552.552,0,0,0,.369-.161,1.313,1.313,0,0,0,.421-.95,1.234,1.234,0,0,0-.12-.54,1.205,1.205,0,0,0-.3-.4.562.562,0,0,0-.369-.154h-1.86l.12-.181v2.55l-.11-.159Z"/><path d="M24.415,25.676a.648.648,0,0,1-.5-.216.744.744,0,0,1-.193-.52V19.161a.722.722,0,0,1,.735-.735h2.28a1.869,1.869,0,0,1,1.044.32,2.372,2.372,0,0,1,.775.855,2.56,2.56,0,0,1,0,2.39,2.4,2.4,0,0,1-.775.859,1.852,1.852,0,0,1-1.044.326H25.12V24.94a.747.747,0,0,1-.193.52A.665.665,0,0,1,24.415,25.676Zm.04-7a.472.472,0,0,0-.485.485V24.94a.5.5,0,0,0,.127.352.41.41,0,0,0,.318.134.42.42,0,0,0,.328-.135.5.5,0,0,0,.127-.351V23.173a.12.12,0,0,1-.083-.059.125.125,0,0,1,0-.124l.1-.179a.123.123,0,0,1,.141-.061.126.126,0,0,1,.094.121v.055h1.615a1.62,1.62,0,0,0,.906-.283,2.274,2.274,0,0,0,.694-2.921,2.12,2.12,0,0,0-.694-.767,1.626,1.626,0,0,0-.906-.279ZM25,22.2a.123.123,0,0,1-.1-.053l-.11-.16a.121.121,0,0,1-.008-.128.123.123,0,0,1,.1-.067V19.826a.125.125,0,0,1-.106-.066.128.128,0,0,1,.006-.128l.121-.181a.125.125,0,0,1,.229.07v.055h1.615a.691.691,0,0,1,.451.185,1.342,1.342,0,0,1,.332.446,1.373,1.373,0,0,1,.132.594,1.387,1.387,0,0,1-.132.589,1.4,1.4,0,0,1-.331.455.677.677,0,0,1-.452.191H25.12v.034A.127.127,0,0,1,25,22.2Zm.125-.409h1.615a.432.432,0,0,0,.286-.129,1.155,1.155,0,0,0,.271-1.343,1.125,1.125,0,0,0-.269-.364.442.442,0,0,0-.288-.124H25.12Z"/></svg>